<svg xmlns="http://www.w3.org/2000/svg" width="24" height="24"><path d="M2.742 23.906a3.739 3.739 0 0 1-1.195-.539c-.3-.203-.742-.629-.91-.879a4.648 4.648 0 0 1-.535-1.175C.004 20.945.004 20.8 0 12.02 0 3.28 0 3.09.098 2.715A3.615 3.615 0 0 1 2.84.075c.39-.087 17.793-.102 18.21-.016 1.141.23 2.036.914 2.552 1.949.41.82.375-.082.394 9.672.012 6.21 0 8.816-.039 9.14-.184 1.52-1.23 2.696-2.738 3.082-.383.098-.52.102-9.262.098-8.45-.004-8.887-.008-9.215-.094Zm0 0" fill="#f06a35"/><path d="M15.406 19.355c1.074-.144 1.918-.578 2.707-1.382.575-.586.934-1.22 1.164-2.059.098-.348.106-.516.125-2.562.012-1.547 0-2.27-.039-2.454-.058-.265-.222-.511-.41-.613-.058-.031-.43-.07-.828-.09-.664-.027-.738-.043-.95-.164-.331-.195-.421-.406-.425-.976 0-1.094-.453-2.106-1.352-3.02-.64-.652-1.355-1.094-2.168-1.344-.195-.058-.632-.078-2.093-.093-2.293-.028-2.805.02-3.586.328C6.113 5.5 5.078 6.71 4.699 8.258c-.07.293-.082.758-.101 3.437-.02 3.36.004 3.852.215 4.516.171.55.347.887.707 1.367.687.91 1.714 1.567 2.742 1.754.488.086 6.527.11 7.144.023Zm0 0" fill="#fff"/><path d="M15.219 14.105c.394.368.312 1.028-.168 1.301l-.489.078-2.902.036c-1.957.015-2.543-.02-2.664-.07h-.004a.925.925 0 0 1-.492-.641.943.943 0 0 1 .27-.743l.043-.035c.183-.152.394-.18 2.12-.183l2-.004c2.02.004 2.036.027 2.286.261ZM12.37 8.633c.309.156.441.375.441.726 0 .301-.117.52-.374.692l-.051.031c-.125.074-.25.09-1.223.098l-.629.004c-.777 0-1.379-.016-1.473-.043-.55-.153-.753-.942-.351-1.348l.039-.035c.215-.211.352-.235 1.621-.235h.953c.809.004.871.024 1.047.11Zm0 0" fill="#f06a35"/></svg>
