<svg xmlns="http://www.w3.org/2000/svg" width="48" height="48"><path d="M3.332 11.332h41.336v25.336H3.332Zm0 0" fill="#f1b31c"/><path d="M15.332 22v4.668c0 .734-.598 1.328-1.332 1.332h-2.668A1.339 1.339 0 0 1 10 26.668V22M3.332 11.332h41.336v6H3.332ZM3.332 30.668h41.336v6H3.332Zm0 0" fill="#d22f27"/><path d="M12.668 22h2.664v2.668h-2.664Zm0 0" fill="#f1b31c"/><path d="M13.668 24.668a1 1 0 1 1-2.001.001 1 1 0 0 1 2.001-.001Zm0 0" fill="#6a462f"/><path d="M18 22v6M7.332 22v6M10 20a5.722 5.722 0 0 1 2.668-.668M15.332 20a5.707 5.707 0 0 0-2.664-.668M10 22h5.332M15.332 22v4.668c0 .734-.598 1.328-1.332 1.332h-2.668A1.339 1.339 0 0 1 10 26.668V22M6.668 28H8M17.332 28h1.336" fill="none" stroke-width="1.33334" stroke-linecap="round" stroke-linejoin="round" stroke="#6a462f"/><path d="M3.332 11.332h41.336v25.336H3.332Zm0 0" fill="none" stroke-width="1.33334" stroke-linecap="round" stroke-linejoin="round" stroke="#000"/></svg>
