<svg xmlns="http://www.w3.org/2000/svg" width="24" height="19" viewBox="0 0 23 19"><path d="M7.234 18.945c8.68 0 13.426-7.265 13.426-13.566 0-.207 0-.414-.015-.617A9.632 9.632 0 0 0 23 2.293c-.86.387-1.773.64-2.71.75A4.746 4.746 0 0 0 22.362.406a9.398 9.398 0 0 1-2.996 1.156A4.69 4.69 0 0 0 13.7.625a4.79 4.79 0 0 0-2.37 5.29A13.354 13.354 0 0 1 1.601.93C.348 3.11.984 5.898 3.059 7.297a4.626 4.626 0 0 1-2.125-.598v.059c0 2.27 1.578 4.222 3.777 4.676a4.687 4.687 0 0 1-2.133.082 4.734 4.734 0 0 0 4.41 3.312A9.417 9.417 0 0 1 0 16.801a13.292 13.292 0 0 0 7.234 2.14" fill="#1da1f2"/></svg>
