<svg xmlns="http://www.w3.org/2000/svg" width="48" height="48"><path d="M3.332 11.332h41.336v25.336H3.332Zm0 0" fill="#1e50a0"/><path d="M26.668 19.238v2.094h6.785l11.215-6.871v-3.129h-5.105Zm0 0" fill="#fff"/><path d="M44.668 11.332h-2.55l-15.45 9.469v.531h2.32l15.68-9.61Zm0 0" fill="#d22f27"/><path d="M39.566 36.668h5.102v-3.129l-11.215-6.871h-6.785v2.094Zm0 0" fill="#fff"/><path d="M44.668 36.668v-1.566l-13.766-8.434h-3.191l16.316 10Zm0 0" fill="#d22f27"/><path d="M21.332 28.762v-2.094h-6.785L3.332 33.539v3.129h5.105Zm0 0" fill="#fff"/><path d="M3.332 36.668h2.55l15.45-9.469v-.531h-2.32l-15.68 9.61Zm0 0" fill="#d22f27"/><path d="M8.434 11.332H3.332v3.129l11.215 6.871h6.785v-2.094Zm0 0" fill="#fff"/><path d="M3.332 11.332v1.566l13.766 8.434h3.191l-16.316-10Zm0 0" fill="#d22f27"/><path d="M3.332 20.668h41.336v6.664H3.332Zm0 0" fill="#fff"/><path d="M20.668 11.332h6.664v25.336h-6.664Zm0 0" fill="#fff"/><path d="M3.332 22h41.336v4H3.332Zm0 0" fill="#d22f27"/><path d="M22 11.332h4v25.336h-4Zm0 0" fill="#d22f27"/><path d="M3.332 11.332h41.336v25.336H3.332Zm0 0" fill="none" stroke-width="1.33334" stroke-linecap="round" stroke-linejoin="round" stroke="#000"/></svg>
