<svg xmlns="http://www.w3.org/2000/svg" width="24" height="24"><path d="M21.75.563H2.25A1.672 1.672 0 0 0 .562 2.21v19.582c.012.918.77 1.652 1.688 1.645h19.5a1.673 1.673 0 0 0 1.688-1.653V2.207A1.674 1.674 0 0 0 21.75.563Zm0 0" fill="#0076b2"/><path d="M3.95 9.137h3.394v10.925H3.949Zm1.698-5.438a1.969 1.969 0 1 1 0 3.937 1.969 1.969 0 0 1 0-3.937M9.473 9.137h3.257v1.5h.043c.454-.86 1.563-1.766 3.211-1.766 3.442-.008 4.079 2.258 4.079 5.191v6h-3.395v-5.316c0-1.266-.023-2.894-1.766-2.894-1.742 0-2.039 1.378-2.039 2.812v5.399h-3.39Zm0 0" fill="#fff"/></svg>
